<svg width="133" height="52" viewBox="0 0 133 52" fill="none" xmlns="http://www.w3.org/2000/svg">
<path d="M24.1113 7.12504C13.529 8.25403 5.84852 17.5853 6.95576 27.9669C8.063 38.3486 17.6987 45.8316 27.8378 44.7511C27.8378 44.7511 30.2229 44.4116 29.9636 41.9847C29.7044 39.5578 27.2039 39.7502 27.2039 39.7502C20.0319 40.5145 12.8733 35.0385 12.0604 27.4217C11.2476 19.8048 16.8825 12.959 24.6465 12.131C28.3847 11.733 31.1963 12.7833 33.088 13.8304C33.8875 14.2736 35.8695 14.4108 36.6071 12.591C37.3463 10.7712 35.8394 9.53856 35.3961 9.31444C34.9529 9.09031 30.4687 6.44598 24.1113 7.12337V7.12504Z" fill="#026FEE"/>
<path d="M52.8611 26.3327C53.0786 12.0122 41.4208 0.223924 26.8226 0.00314473C12.2244 -0.217634 0.218709 11.2144 0.00294728 25.5349C-0.212814 39.8554 11.445 51.6437 26.0415 51.8645C27.3344 51.8545 29.3465 51.831 31.0525 51.4781C32.2986 51.2206 33.1064 49.737 32.9057 48.6649C32.5277 46.0138 29.972 46.5273 29.972 46.5273C29.3866 46.6143 28.5102 46.8468 26.1168 46.81C14.3653 46.6327 4.97884 37.1425 5.15279 25.6118C5.32673 14.0812 14.9942 4.87868 26.7473 5.05598C38.4988 5.23327 47.8852 14.7234 47.7113 26.2541C47.6026 33.483 44.025 39.0727 39.1444 42.6854C39.1444 42.6854 37.1708 44.2476 38.3984 46.2146C39.6261 48.1815 42.0195 46.8853 42.0195 46.8853C47.0306 43.2742 52.7073 36.4735 52.8611 26.331V26.3327Z" fill="#026FEE"/>
<path d="M26.2273 14.0176C19.8866 14.0176 13.9941 18.9667 13.9941 26.1604C13.9941 33.3541 20.7714 38.0156 25.7389 37.845C25.7389 37.845 28.1775 37.845 28.2461 35.3713C28.3147 32.8975 25.7389 32.8975 25.7389 32.8975C22.822 32.8975 19.4467 29.9705 19.4467 25.8711C19.4467 22.0493 22.5895 18.9684 26.3578 18.9684C30.1261 18.9684 33.2688 22.0593 33.2688 25.8711L33.2855 35.3713C33.2855 35.3713 33.411 37.845 35.7727 37.845C38.1343 37.845 38.2798 35.3713 38.2798 35.3713V26.1153C38.2798 18.8296 32.5697 14.0193 26.229 14.0193L26.2273 14.0176Z" fill="#026FEE"/>
<path d="M24.1113 7.12504C13.529 8.25403 5.84852 17.5853 6.95576 27.9669C8.063 38.3486 17.6987 45.8316 27.8378 44.7511C27.8378 44.7511 30.2229 44.4116 29.9636 41.9847C29.7044 39.5578 27.2039 39.7502 27.2039 39.7502C20.0319 40.5145 12.8733 35.0385 12.0604 27.4217C11.2476 19.8048 16.8825 12.959 24.6465 12.131C28.3847 11.733 31.1963 12.7833 33.088 13.8304C33.8875 14.2736 35.8695 14.4108 36.6071 12.591C37.3463 10.7712 35.8394 9.53856 35.3961 9.31444C34.9529 9.09031 30.4687 6.44598 24.1113 7.12337V7.12504Z" fill="url(#paint0_linear_3117_68)"/>
<path d="M52.8611 26.3327C53.0786 12.0122 41.4208 0.223924 26.8226 0.00314473C12.2244 -0.217634 0.218709 11.2144 0.00294728 25.5349C-0.212814 39.8554 11.445 51.6437 26.0415 51.8645C27.3344 51.8545 29.3465 51.831 31.0525 51.4781C32.2986 51.2206 33.1064 49.737 32.9057 48.6649C32.5277 46.0138 29.972 46.5273 29.972 46.5273C29.3866 46.6143 28.5102 46.8468 26.1168 46.81C14.3653 46.6327 4.97884 37.1425 5.15279 25.6118C5.32673 14.0812 14.9942 4.87868 26.7473 5.05598C38.4988 5.23327 47.8852 14.7234 47.7113 26.2541C47.6026 33.483 44.025 39.0727 39.1444 42.6854C39.1444 42.6854 37.1708 44.2476 38.3984 46.2146C39.6261 48.1815 42.0195 46.8853 42.0195 46.8853C47.0306 43.2742 52.7073 36.4735 52.8611 26.331V26.3327Z" fill="url(#paint1_linear_3117_68)"/>
<path d="M26.2273 14.0176C19.8866 14.0176 13.9941 18.9667 13.9941 26.1604C13.9941 33.3541 20.7714 38.0156 25.7389 37.845C25.7389 37.845 28.1775 37.845 28.2461 35.3713C28.3147 32.8975 25.7389 32.8975 25.7389 32.8975C22.822 32.8975 19.4467 29.9705 19.4467 25.8711C19.4467 22.0493 22.5895 18.9684 26.3578 18.9684C30.1261 18.9684 33.2688 22.0593 33.2688 25.8711L33.2855 35.3713C33.2855 35.3713 33.411 37.845 35.7727 37.845C38.1343 37.845 38.2798 35.3713 38.2798 35.3713V26.1153C38.2798 18.8296 32.5697 14.0193 26.229 14.0193L26.2273 14.0176Z" fill="url(#paint2_linear_3117_68)"/>
<path d="M110.004 25C110.004 18.5704 115.556 14 121.544 14C127.531 14 133 18.6559 133 25C133 25 133.012 25.9452 132.836 26.8632C131.791 26.8632 115.225 26.8709 115.225 26.8709C116.446 30.3055 119.242 31.4335 121.544 31.4335C122.904 31.4335 124.145 30.9668 124.711 30.6011C124.711 30.6011 126.953 29.5743 128.006 31.4608C129.059 33.3511 127.14 34.5958 127.14 34.5958C126.183 35.047 124.296 36 121.54 36C115.553 36 110 31.4257 110 25H110.004ZM127.595 22.6584C126.414 19.7995 123.754 18.5665 121.548 18.5665C119.342 18.5665 116.59 19.745 115.409 22.6584H127.595Z" fill="url(#paint3_linear_3117_68)"/>
<path d="M73.5858 14C67.5814 14 62 18.5687 62 25.2098C62 31.8509 68.4193 36.1551 73.123 35.9957C73.123 35.9957 75.433 35.9957 75.4968 33.7133C75.5606 31.4309 73.123 31.4309 73.123 31.4309C70.3582 31.4309 67.1625 28.7286 67.1625 24.9454C67.1625 21.4187 70.1388 18.5726 73.7095 18.5726C77.2801 18.5726 80.2564 21.4265 80.2564 24.9454L80.2723 33.7133C80.2723 33.7133 80.392 35.9957 82.6262 35.9957C84.8604 35.9957 85 33.7133 85 33.7133V25.1709C85 18.4442 79.5901 14.0039 73.5858 14.0039V14Z" fill="url(#paint4_linear_3117_68)"/>
<path d="M97.5359 14.0039C91.8258 14.0039 86 18.2438 86 24.9542C86 31.6645 91.8656 35.9044 97.496 35.9044C101.268 35.9044 104.04 34.5841 104.04 32.4931C104.04 33.3372 104.024 33.8755 104.024 34.4679C104.024 38.1851 100.227 40.4542 97.6316 40.4542C93.68 40.4542 92.1647 37.8947 91.762 37.1435C91.762 37.1435 90.5697 35.2384 88.54 36.1329C86.5064 37.0235 87.3597 39.2073 87.3597 39.2073C88.9587 42.1695 92.6552 45 97.504 45C102.353 45 109 41.6739 109 33.7128V25.1207C109 18.3832 103.258 14 97.5479 14L97.5359 14.0039ZM97.492 31.3586C93.8793 31.3586 90.9485 28.4081 90.9485 24.9038C90.9485 21.3996 93.8753 18.5575 97.492 18.5575C101.109 18.5575 104.036 21.3996 104.036 24.9038C104.036 28.4081 101.109 31.3586 97.492 31.3586Z" fill="url(#paint5_linear_3117_68)"/>
<defs>
<linearGradient id="paint0_linear_3117_68" x1="-0.000451345" y1="25.9331" x2="52.8644" y2="25.9331" gradientUnits="userSpaceOnUse">
<stop stop-color="#3662E1"/>
<stop offset="1" stop-color="#2A4CC2"/>
</linearGradient>
<linearGradient id="paint1_linear_3117_68" x1="-0.000397859" y1="25.933" x2="52.8645" y2="25.933" gradientUnits="userSpaceOnUse">
<stop stop-color="#3662E1"/>
<stop offset="1" stop-color="#2A4CC2"/>
</linearGradient>
<linearGradient id="paint2_linear_3117_68" x1="-0.000243655" y1="25.933" x2="52.8646" y2="25.933" gradientUnits="userSpaceOnUse">
<stop stop-color="#3662E1"/>
<stop offset="1" stop-color="#2A4CC2"/>
</linearGradient>
<linearGradient id="paint3_linear_3117_68" x1="112.915" y1="22.871" x2="138.52" y2="22.5751" gradientUnits="userSpaceOnUse">
<stop stop-color="#3662E1"/>
<stop offset="1" stop-color="#2A4CC2"/>
</linearGradient>
<linearGradient id="paint4_linear_3117_68" x1="64.9155" y1="22.871" x2="90.52" y2="22.5751" gradientUnits="userSpaceOnUse">
<stop stop-color="#3662E1"/>
<stop offset="1" stop-color="#2A4CC2"/>
</linearGradient>
<linearGradient id="paint5_linear_3117_68" x1="88.9155" y1="26.5" x2="114.522" y2="26.29" gradientUnits="userSpaceOnUse">
<stop stop-color="#3662E1"/>
<stop offset="1" stop-color="#2A4CC2"/>
</linearGradient>
</defs>
</svg>
